<mxfile host="app.diagrams.net" modified="2024-06-22T13:26:31.392Z" agent="Mozilla/5.0 (Macintosh; Intel Mac OS X 10_15_7) AppleWebKit/605.1.15 (KHTML, like Gecko) Version/17.5 Safari/605.1.15" etag="txrmZl7TDIYcQI2lW2GI" version="24.6.0" type="device">
  <diagram id="R2lEEEUBdFMjLlhIrx00" name="Page-1">
    <mxGraphModel dx="1804" dy="1747" grid="0" gridSize="10" guides="1" tooltips="1" connect="1" arrows="1" fold="1" page="1" pageScale="1" pageWidth="850" pageHeight="1100" math="0" shadow="0" extFonts="Permanent Marker^https://fonts.googleapis.com/css?family=Permanent+Marker">
      <root>
        <mxCell id="0" />
        <mxCell id="1" parent="0" />
        <mxCell id="NwXPYGNypekHo5eemHI1-1" value="customer" style="rounded=0;whiteSpace=wrap;html=1;fontSize=18;" parent="1" vertex="1">
          <mxGeometry x="-287" y="-16" width="120" height="47" as="geometry" />
        </mxCell>
        <mxCell id="NwXPYGNypekHo5eemHI1-3" value="item" style="rounded=0;whiteSpace=wrap;html=1;fontSize=18;" parent="1" vertex="1">
          <mxGeometry x="686" y="294" width="120" height="60" as="geometry" />
        </mxCell>
        <mxCell id="NwXPYGNypekHo5eemHI1-4" value="seller" style="rounded=0;whiteSpace=wrap;html=1;fontSize=18;" parent="1" vertex="1">
          <mxGeometry x="162" y="573" width="120" height="60" as="geometry" />
        </mxCell>
        <mxCell id="NwXPYGNypekHo5eemHI1-5" value="region" style="rounded=0;whiteSpace=wrap;html=1;fontSize=18;" parent="1" vertex="1">
          <mxGeometry x="-156" y="486" width="120" height="60" as="geometry" />
        </mxCell>
        <mxCell id="NwXPYGNypekHo5eemHI1-6" value="product" style="rounded=0;whiteSpace=wrap;html=1;fontSize=18;" parent="1" vertex="1">
          <mxGeometry x="718.5" y="682" width="120" height="60" as="geometry" />
        </mxCell>
        <mxCell id="NwXPYGNypekHo5eemHI1-8" value="order" style="rounded=0;whiteSpace=wrap;html=1;fontSize=18;" parent="1" vertex="1">
          <mxGeometry x="171" y="212" width="120" height="60" as="geometry" />
        </mxCell>
        <mxCell id="NwXPYGNypekHo5eemHI1-9" value="review" style="rounded=0;whiteSpace=wrap;html=1;fontSize=18;" parent="1" vertex="1">
          <mxGeometry x="749" y="34" width="120" height="60" as="geometry" />
        </mxCell>
        <mxCell id="NwXPYGNypekHo5eemHI1-10" value="payment" style="shape=ext;margin=3;double=1;whiteSpace=wrap;html=1;align=center;fontSize=18;" parent="1" vertex="1">
          <mxGeometry x="543" y="-185" width="140" height="63" as="geometry" />
        </mxCell>
        <mxCell id="NwXPYGNypekHo5eemHI1-14" value="unique_id" style="ellipse;whiteSpace=wrap;html=1;align=center;fontSize=14;" parent="1" vertex="1">
          <mxGeometry x="-339" y="-150" width="110" height="40" as="geometry" />
        </mxCell>
        <mxCell id="NwXPYGNypekHo5eemHI1-15" value="id" style="ellipse;whiteSpace=wrap;html=1;align=center;fontSize=14;fontStyle=4" parent="1" vertex="1">
          <mxGeometry x="-225" y="-142" width="100" height="40" as="geometry" />
        </mxCell>
        <mxCell id="NwXPYGNypekHo5eemHI1-43" value="" style="edgeStyle=orthogonalEdgeStyle;rounded=0;orthogonalLoop=1;jettySize=auto;html=1;" parent="1" source="NwXPYGNypekHo5eemHI1-16" target="NwXPYGNypekHo5eemHI1-8" edge="1">
          <mxGeometry relative="1" as="geometry" />
        </mxCell>
        <mxCell id="NwXPYGNypekHo5eemHI1-16" value="id" style="ellipse;whiteSpace=wrap;html=1;align=center;fontSize=14;fontStyle=4" parent="1" vertex="1">
          <mxGeometry x="30" y="229" width="100" height="25" as="geometry" />
        </mxCell>
        <mxCell id="NwXPYGNypekHo5eemHI1-58" value="" style="edgeStyle=orthogonalEdgeStyle;rounded=0;orthogonalLoop=1;jettySize=auto;html=1;" parent="1" source="NwXPYGNypekHo5eemHI1-17" target="NwXPYGNypekHo5eemHI1-4" edge="1">
          <mxGeometry relative="1" as="geometry" />
        </mxCell>
        <mxCell id="NwXPYGNypekHo5eemHI1-17" value="id" style="ellipse;whiteSpace=wrap;html=1;align=center;fontSize=14;fontStyle=4" parent="1" vertex="1">
          <mxGeometry x="171" y="675" width="100" height="40" as="geometry" />
        </mxCell>
        <mxCell id="NwXPYGNypekHo5eemHI1-62" style="edgeStyle=orthogonalEdgeStyle;rounded=0;orthogonalLoop=1;jettySize=auto;html=1;exitX=1;exitY=0.5;exitDx=0;exitDy=0;" parent="1" source="NwXPYGNypekHo5eemHI1-19" edge="1">
          <mxGeometry relative="1" as="geometry">
            <mxPoint x="-122" y="483" as="targetPoint" />
          </mxGeometry>
        </mxCell>
        <mxCell id="NwXPYGNypekHo5eemHI1-19" value="zip_code" style="ellipse;whiteSpace=wrap;html=1;align=center;fontSize=14;fontStyle=4" parent="1" vertex="1">
          <mxGeometry x="-308" y="408" width="100" height="40" as="geometry" />
        </mxCell>
        <mxCell id="NwXPYGNypekHo5eemHI1-60" style="edgeStyle=orthogonalEdgeStyle;rounded=0;orthogonalLoop=1;jettySize=auto;html=1;" parent="1" source="NwXPYGNypekHo5eemHI1-21" edge="1">
          <mxGeometry relative="1" as="geometry">
            <mxPoint x="-106" y="550" as="targetPoint" />
          </mxGeometry>
        </mxCell>
        <mxCell id="NwXPYGNypekHo5eemHI1-21" value="city" style="ellipse;whiteSpace=wrap;html=1;align=center;fontSize=14;" parent="1" vertex="1">
          <mxGeometry x="-276" y="584" width="100" height="40" as="geometry" />
        </mxCell>
        <mxCell id="NwXPYGNypekHo5eemHI1-59" value="" style="edgeStyle=orthogonalEdgeStyle;rounded=0;orthogonalLoop=1;jettySize=auto;html=1;" parent="1" source="NwXPYGNypekHo5eemHI1-22" target="NwXPYGNypekHo5eemHI1-5" edge="1">
          <mxGeometry relative="1" as="geometry" />
        </mxCell>
        <mxCell id="NwXPYGNypekHo5eemHI1-22" value="state" style="ellipse;whiteSpace=wrap;html=1;align=center;fontSize=14;" parent="1" vertex="1">
          <mxGeometry x="-333" y="496" width="100" height="40" as="geometry" />
        </mxCell>
        <mxCell id="NwXPYGNypekHo5eemHI1-23" value="sequential" style="ellipse;whiteSpace=wrap;html=1;align=center;fontSize=14;" parent="1" vertex="1">
          <mxGeometry x="428" y="-290" width="100" height="34" as="geometry" />
        </mxCell>
        <mxCell id="NwXPYGNypekHo5eemHI1-51" style="edgeStyle=orthogonalEdgeStyle;rounded=0;orthogonalLoop=1;jettySize=auto;html=1;exitX=0.5;exitY=1;exitDx=0;exitDy=0;entryX=0.75;entryY=0;entryDx=0;entryDy=0;" parent="1" source="NwXPYGNypekHo5eemHI1-24" target="NwXPYGNypekHo5eemHI1-10" edge="1">
          <mxGeometry relative="1" as="geometry" />
        </mxCell>
        <mxCell id="NwXPYGNypekHo5eemHI1-24" value="installment" style="ellipse;whiteSpace=wrap;html=1;align=center;fontSize=14;" parent="1" vertex="1">
          <mxGeometry x="689" y="-279" width="100" height="40" as="geometry" />
        </mxCell>
        <mxCell id="NwXPYGNypekHo5eemHI1-25" value="type" style="ellipse;whiteSpace=wrap;html=1;align=center;fontSize=14;" parent="1" vertex="1">
          <mxGeometry x="563" y="-336" width="100" height="40" as="geometry" />
        </mxCell>
        <mxCell id="NwXPYGNypekHo5eemHI1-63" value="" style="edgeStyle=orthogonalEdgeStyle;rounded=0;orthogonalLoop=1;jettySize=auto;html=1;" parent="1" source="NwXPYGNypekHo5eemHI1-26" target="NwXPYGNypekHo5eemHI1-3" edge="1">
          <mxGeometry relative="1" as="geometry" />
        </mxCell>
        <mxCell id="NwXPYGNypekHo5eemHI1-26" value="id" style="ellipse;whiteSpace=wrap;html=1;align=center;fontSize=14;" parent="1" vertex="1">
          <mxGeometry x="742" y="210" width="100" height="40" as="geometry" />
        </mxCell>
        <mxCell id="NwXPYGNypekHo5eemHI1-27" value="shipping_limit" style="ellipse;whiteSpace=wrap;html=1;align=center;fontSize=14;" parent="1" vertex="1">
          <mxGeometry x="850" y="317" width="100" height="40" as="geometry" />
        </mxCell>
        <mxCell id="NwXPYGNypekHo5eemHI1-64" style="edgeStyle=orthogonalEdgeStyle;rounded=0;orthogonalLoop=1;jettySize=auto;html=1;exitX=0;exitY=0.5;exitDx=0;exitDy=0;entryX=1;entryY=0.5;entryDx=0;entryDy=0;" parent="1" source="NwXPYGNypekHo5eemHI1-28" target="NwXPYGNypekHo5eemHI1-3" edge="1">
          <mxGeometry relative="1" as="geometry" />
        </mxCell>
        <mxCell id="NwXPYGNypekHo5eemHI1-28" value="price" style="ellipse;whiteSpace=wrap;html=1;align=center;fontSize=14;" parent="1" vertex="1">
          <mxGeometry x="846" y="254" width="100" height="40" as="geometry" />
        </mxCell>
        <mxCell id="NwXPYGNypekHo5eemHI1-65" style="edgeStyle=orthogonalEdgeStyle;rounded=0;orthogonalLoop=1;jettySize=auto;html=1;" parent="1" source="NwXPYGNypekHo5eemHI1-29" edge="1">
          <mxGeometry relative="1" as="geometry">
            <mxPoint x="766" y="358" as="targetPoint" />
          </mxGeometry>
        </mxCell>
        <mxCell id="NwXPYGNypekHo5eemHI1-29" value="freight_value" style="ellipse;whiteSpace=wrap;html=1;align=center;fontSize=14;" parent="1" vertex="1">
          <mxGeometry x="795" y="392" width="111" height="40" as="geometry" />
        </mxCell>
        <mxCell id="NwXPYGNypekHo5eemHI1-55" style="edgeStyle=orthogonalEdgeStyle;rounded=0;orthogonalLoop=1;jettySize=auto;html=1;" parent="1" source="NwXPYGNypekHo5eemHI1-30" edge="1">
          <mxGeometry relative="1" as="geometry">
            <mxPoint x="834" y="31" as="targetPoint" />
          </mxGeometry>
        </mxCell>
        <mxCell id="NwXPYGNypekHo5eemHI1-30" value="score" style="ellipse;whiteSpace=wrap;html=1;align=center;fontSize=14;" parent="1" vertex="1">
          <mxGeometry x="894" y="-20" width="100" height="40" as="geometry" />
        </mxCell>
        <mxCell id="NwXPYGNypekHo5eemHI1-57" value="" style="edgeStyle=orthogonalEdgeStyle;rounded=0;orthogonalLoop=1;jettySize=auto;html=1;" parent="1" source="NwXPYGNypekHo5eemHI1-31" target="NwXPYGNypekHo5eemHI1-9" edge="1">
          <mxGeometry relative="1" as="geometry" />
        </mxCell>
        <mxCell id="NwXPYGNypekHo5eemHI1-31" value="id" style="ellipse;whiteSpace=wrap;html=1;align=center;fontSize=14;fontStyle=4" parent="1" vertex="1">
          <mxGeometry x="913" y="44" width="100" height="40" as="geometry" />
        </mxCell>
        <mxCell id="NwXPYGNypekHo5eemHI1-71" value="" style="edgeStyle=orthogonalEdgeStyle;rounded=0;orthogonalLoop=1;jettySize=auto;html=1;" parent="1" source="NwXPYGNypekHo5eemHI1-32" target="NwXPYGNypekHo5eemHI1-6" edge="1">
          <mxGeometry relative="1" as="geometry" />
        </mxCell>
        <mxCell id="NwXPYGNypekHo5eemHI1-32" value="id" style="ellipse;whiteSpace=wrap;html=1;align=center;fontSize=14;fontStyle=4" parent="1" vertex="1">
          <mxGeometry x="885" y="701.5" width="100" height="21" as="geometry" />
        </mxCell>
        <mxCell id="NwXPYGNypekHo5eemHI1-33" value="category_name" style="ellipse;whiteSpace=wrap;html=1;align=center;fontSize=14;" parent="1" vertex="1">
          <mxGeometry x="764" y="781" width="119" height="35" as="geometry" />
        </mxCell>
        <mxCell id="uobmm24bpshC0NRzh4nf-2" style="edgeStyle=orthogonalEdgeStyle;rounded=0;orthogonalLoop=1;jettySize=auto;html=1;entryX=0;entryY=0.5;entryDx=0;entryDy=0;" parent="1" source="NwXPYGNypekHo5eemHI1-35" target="NwXPYGNypekHo5eemHI1-6" edge="1">
          <mxGeometry relative="1" as="geometry" />
        </mxCell>
        <mxCell id="NwXPYGNypekHo5eemHI1-35" value="category_name_english" style="ellipse;whiteSpace=wrap;html=1;align=center;fontSize=14;" parent="1" vertex="1">
          <mxGeometry x="559" y="754" width="174" height="43" as="geometry" />
        </mxCell>
        <mxCell id="NwXPYGNypekHo5eemHI1-48" style="edgeStyle=orthogonalEdgeStyle;rounded=0;orthogonalLoop=1;jettySize=auto;html=1;entryX=0.675;entryY=0.043;entryDx=0;entryDy=0;entryPerimeter=0;" parent="1" target="NwXPYGNypekHo5eemHI1-1" edge="1">
          <mxGeometry relative="1" as="geometry">
            <mxPoint x="-172" y="-102" as="sourcePoint" />
          </mxGeometry>
        </mxCell>
        <mxCell id="NwXPYGNypekHo5eemHI1-50" style="edgeStyle=orthogonalEdgeStyle;rounded=0;orthogonalLoop=1;jettySize=auto;html=1;exitX=0.5;exitY=1;exitDx=0;exitDy=0;entryX=0.407;entryY=-0.016;entryDx=0;entryDy=0;entryPerimeter=0;" parent="1" source="NwXPYGNypekHo5eemHI1-25" target="NwXPYGNypekHo5eemHI1-10" edge="1">
          <mxGeometry relative="1" as="geometry" />
        </mxCell>
        <mxCell id="NwXPYGNypekHo5eemHI1-53" style="edgeStyle=orthogonalEdgeStyle;rounded=0;orthogonalLoop=1;jettySize=auto;html=1;entryX=0.121;entryY=-0.079;entryDx=0;entryDy=0;entryPerimeter=0;" parent="1" source="NwXPYGNypekHo5eemHI1-23" target="NwXPYGNypekHo5eemHI1-10" edge="1">
          <mxGeometry relative="1" as="geometry" />
        </mxCell>
        <mxCell id="NwXPYGNypekHo5eemHI1-70" style="edgeStyle=orthogonalEdgeStyle;rounded=0;orthogonalLoop=1;jettySize=auto;html=1;entryX=1.017;entryY=0.867;entryDx=0;entryDy=0;entryPerimeter=0;" parent="1" source="NwXPYGNypekHo5eemHI1-27" target="NwXPYGNypekHo5eemHI1-3" edge="1">
          <mxGeometry relative="1" as="geometry" />
        </mxCell>
        <mxCell id="NwXPYGNypekHo5eemHI1-94" value="" style="shape=link;html=1;rounded=0;width=6;entryX=1;entryY=0.5;entryDx=0;entryDy=0;exitX=0.417;exitY=0.067;exitDx=0;exitDy=0;exitPerimeter=0;" parent="1" source="NwXPYGNypekHo5eemHI1-8" target="NwXPYGNypekHo5eemHI1-97" edge="1">
          <mxGeometry relative="1" as="geometry">
            <mxPoint x="340" y="181" as="sourcePoint" />
            <mxPoint x="223" y="209" as="targetPoint" />
          </mxGeometry>
        </mxCell>
        <mxCell id="NwXPYGNypekHo5eemHI1-95" value="M" style="resizable=0;html=1;whiteSpace=wrap;align=right;verticalAlign=bottom;" parent="NwXPYGNypekHo5eemHI1-94" connectable="0" vertex="1">
          <mxGeometry x="1" relative="1" as="geometry" />
        </mxCell>
        <mxCell id="NwXPYGNypekHo5eemHI1-97" value="order" style="shape=rhombus;perimeter=rhombusPerimeter;whiteSpace=wrap;html=1;align=center;" parent="1" vertex="1">
          <mxGeometry x="68" y="52" width="120" height="60" as="geometry" />
        </mxCell>
        <mxCell id="NwXPYGNypekHo5eemHI1-99" value="" style="endArrow=none;html=1;rounded=0;entryX=0;entryY=0.5;entryDx=0;entryDy=0;exitX=0.425;exitY=1.021;exitDx=0;exitDy=0;exitPerimeter=0;" parent="1" source="NwXPYGNypekHo5eemHI1-1" target="NwXPYGNypekHo5eemHI1-97" edge="1">
          <mxGeometry relative="1" as="geometry">
            <mxPoint x="-64" y="64" as="sourcePoint" />
            <mxPoint x="96" y="64" as="targetPoint" />
          </mxGeometry>
        </mxCell>
        <mxCell id="NwXPYGNypekHo5eemHI1-100" value="1" style="resizable=0;html=1;whiteSpace=wrap;align=right;verticalAlign=bottom;" parent="NwXPYGNypekHo5eemHI1-99" connectable="0" vertex="1">
          <mxGeometry x="1" relative="1" as="geometry" />
        </mxCell>
        <mxCell id="NwXPYGNypekHo5eemHI1-105" value="" style="shape=link;html=1;rounded=0;width=6;entryX=0;entryY=0.5;entryDx=0;entryDy=0;exitX=0.558;exitY=1.017;exitDx=0;exitDy=0;exitPerimeter=0;" parent="1" source="NwXPYGNypekHo5eemHI1-8" target="NwXPYGNypekHo5eemHI1-107" edge="1">
          <mxGeometry relative="1" as="geometry">
            <mxPoint x="238" y="275" as="sourcePoint" />
            <mxPoint x="396" y="306" as="targetPoint" />
          </mxGeometry>
        </mxCell>
        <mxCell id="NwXPYGNypekHo5eemHI1-106" value="1" style="resizable=0;html=1;whiteSpace=wrap;align=right;verticalAlign=bottom;" parent="NwXPYGNypekHo5eemHI1-105" connectable="0" vertex="1">
          <mxGeometry x="1" relative="1" as="geometry" />
        </mxCell>
        <mxCell id="NwXPYGNypekHo5eemHI1-107" value="has" style="shape=rhombus;perimeter=rhombusPerimeter;whiteSpace=wrap;html=1;align=center;" parent="1" vertex="1">
          <mxGeometry x="425" y="352" width="120" height="60" as="geometry" />
        </mxCell>
        <mxCell id="NwXPYGNypekHo5eemHI1-108" value="" style="endArrow=none;html=1;rounded=0;exitX=0;exitY=0.25;exitDx=0;exitDy=0;entryX=1;entryY=0.5;entryDx=0;entryDy=0;" parent="1" source="NwXPYGNypekHo5eemHI1-3" target="NwXPYGNypekHo5eemHI1-107" edge="1">
          <mxGeometry relative="1" as="geometry">
            <mxPoint x="568" y="286" as="sourcePoint" />
            <mxPoint x="580" y="248" as="targetPoint" />
          </mxGeometry>
        </mxCell>
        <mxCell id="NwXPYGNypekHo5eemHI1-109" value="M" style="resizable=0;html=1;whiteSpace=wrap;align=right;verticalAlign=bottom;" parent="NwXPYGNypekHo5eemHI1-108" connectable="0" vertex="1">
          <mxGeometry x="1" relative="1" as="geometry" />
        </mxCell>
        <mxCell id="NwXPYGNypekHo5eemHI1-111" value="" style="shape=link;html=1;rounded=0;width=6;exitX=0.425;exitY=1.067;exitDx=0;exitDy=0;exitPerimeter=0;" parent="1" source="NwXPYGNypekHo5eemHI1-3" edge="1">
          <mxGeometry relative="1" as="geometry">
            <mxPoint x="704" y="485" as="sourcePoint" />
            <mxPoint x="737" y="464" as="targetPoint" />
          </mxGeometry>
        </mxCell>
        <mxCell id="NwXPYGNypekHo5eemHI1-112" value="M" style="resizable=0;html=1;whiteSpace=wrap;align=right;verticalAlign=bottom;" parent="NwXPYGNypekHo5eemHI1-111" connectable="0" vertex="1">
          <mxGeometry x="1" relative="1" as="geometry">
            <mxPoint x="-13" as="offset" />
          </mxGeometry>
        </mxCell>
        <mxCell id="NwXPYGNypekHo5eemHI1-113" value="contain" style="shape=rhombus;perimeter=rhombusPerimeter;whiteSpace=wrap;html=1;align=center;" parent="1" vertex="1">
          <mxGeometry x="679" y="462" width="120" height="60" as="geometry" />
        </mxCell>
        <mxCell id="NwXPYGNypekHo5eemHI1-114" value="" style="endArrow=none;html=1;rounded=0;exitX=0.163;exitY=-0.017;exitDx=0;exitDy=0;entryX=0.5;entryY=1;entryDx=0;entryDy=0;exitPerimeter=0;" parent="1" source="NwXPYGNypekHo5eemHI1-6" target="NwXPYGNypekHo5eemHI1-113" edge="1">
          <mxGeometry relative="1" as="geometry">
            <mxPoint x="848" y="558" as="sourcePoint" />
            <mxPoint x="736" y="536" as="targetPoint" />
          </mxGeometry>
        </mxCell>
        <mxCell id="NwXPYGNypekHo5eemHI1-115" value="1" style="resizable=0;html=1;whiteSpace=wrap;align=right;verticalAlign=bottom;" parent="NwXPYGNypekHo5eemHI1-114" connectable="0" vertex="1">
          <mxGeometry x="1" relative="1" as="geometry">
            <mxPoint x="-13" y="12" as="offset" />
          </mxGeometry>
        </mxCell>
        <mxCell id="NwXPYGNypekHo5eemHI1-119" value="" style="shape=link;html=1;rounded=0;width=6;exitX=0;exitY=1;exitDx=0;exitDy=0;entryX=0.5;entryY=0;entryDx=0;entryDy=0;" parent="1" source="NwXPYGNypekHo5eemHI1-3" target="NwXPYGNypekHo5eemHI1-123" edge="1">
          <mxGeometry relative="1" as="geometry">
            <mxPoint x="644" y="362" as="sourcePoint" />
            <mxPoint x="644" y="468" as="targetPoint" />
          </mxGeometry>
        </mxCell>
        <mxCell id="NwXPYGNypekHo5eemHI1-120" value="M" style="resizable=0;html=1;whiteSpace=wrap;align=right;verticalAlign=bottom;" parent="NwXPYGNypekHo5eemHI1-119" connectable="0" vertex="1">
          <mxGeometry x="1" relative="1" as="geometry">
            <mxPoint x="-13" as="offset" />
          </mxGeometry>
        </mxCell>
        <mxCell id="NwXPYGNypekHo5eemHI1-121" value="" style="endArrow=none;html=1;rounded=0;exitX=1;exitY=0.5;exitDx=0;exitDy=0;entryX=0;entryY=0.5;entryDx=0;entryDy=0;" parent="1" source="NwXPYGNypekHo5eemHI1-4" target="NwXPYGNypekHo5eemHI1-123" edge="1">
          <mxGeometry relative="1" as="geometry">
            <mxPoint x="453" y="651" as="sourcePoint" />
            <mxPoint x="454" y="492" as="targetPoint" />
          </mxGeometry>
        </mxCell>
        <mxCell id="NwXPYGNypekHo5eemHI1-122" value="1" style="resizable=0;html=1;whiteSpace=wrap;align=right;verticalAlign=bottom;" parent="NwXPYGNypekHo5eemHI1-121" connectable="0" vertex="1">
          <mxGeometry x="1" relative="1" as="geometry">
            <mxPoint x="-6" y="17" as="offset" />
          </mxGeometry>
        </mxCell>
        <mxCell id="NwXPYGNypekHo5eemHI1-123" value="sell" style="shape=rhombus;perimeter=rhombusPerimeter;whiteSpace=wrap;html=1;align=center;" parent="1" vertex="1">
          <mxGeometry x="463" y="573" width="120" height="60" as="geometry" />
        </mxCell>
        <mxCell id="NwXPYGNypekHo5eemHI1-124" value="" style="shape=link;html=1;rounded=0;width=6;exitX=0.614;exitY=1.016;exitDx=0;exitDy=0;exitPerimeter=0;" parent="1" source="NwXPYGNypekHo5eemHI1-10" edge="1">
          <mxGeometry relative="1" as="geometry">
            <mxPoint x="415" y="48" as="sourcePoint" />
            <mxPoint x="420" y="121" as="targetPoint" />
          </mxGeometry>
        </mxCell>
        <mxCell id="NwXPYGNypekHo5eemHI1-125" value="M" style="resizable=0;html=1;whiteSpace=wrap;align=right;verticalAlign=bottom;" parent="NwXPYGNypekHo5eemHI1-124" connectable="0" vertex="1">
          <mxGeometry x="1" relative="1" as="geometry">
            <mxPoint x="-46" y="2" as="offset" />
          </mxGeometry>
        </mxCell>
        <mxCell id="NwXPYGNypekHo5eemHI1-126" value="belong to" style="shape=rhombus;perimeter=rhombusPerimeter;whiteSpace=wrap;html=1;align=center;" parent="1" vertex="1">
          <mxGeometry x="360" y="120" width="120" height="60" as="geometry" />
        </mxCell>
        <mxCell id="NwXPYGNypekHo5eemHI1-127" value="" style="shape=link;html=1;rounded=0;width=6;exitX=1.025;exitY=0.4;exitDx=0;exitDy=0;exitPerimeter=0;entryX=0.5;entryY=1;entryDx=0;entryDy=0;" parent="1" source="NwXPYGNypekHo5eemHI1-8" target="NwXPYGNypekHo5eemHI1-126" edge="1">
          <mxGeometry relative="1" as="geometry">
            <mxPoint x="451" y="229" as="sourcePoint" />
            <mxPoint x="328" y="200" as="targetPoint" />
          </mxGeometry>
        </mxCell>
        <mxCell id="NwXPYGNypekHo5eemHI1-128" value="1" style="resizable=0;html=1;whiteSpace=wrap;align=right;verticalAlign=bottom;" parent="NwXPYGNypekHo5eemHI1-127" connectable="0" vertex="1">
          <mxGeometry x="1" relative="1" as="geometry">
            <mxPoint x="-29" y="7" as="offset" />
          </mxGeometry>
        </mxCell>
        <mxCell id="NwXPYGNypekHo5eemHI1-129" value="" style="shape=link;html=1;rounded=0;width=6;exitX=0.25;exitY=1;exitDx=0;exitDy=0;entryX=1;entryY=0.5;entryDx=0;entryDy=0;" parent="1" source="NwXPYGNypekHo5eemHI1-9" target="NwXPYGNypekHo5eemHI1-131" edge="1">
          <mxGeometry relative="1" as="geometry">
            <mxPoint x="524" y="137" as="sourcePoint" />
            <mxPoint x="624" y="200" as="targetPoint" />
          </mxGeometry>
        </mxCell>
        <mxCell id="NwXPYGNypekHo5eemHI1-130" value="M" style="resizable=0;html=1;whiteSpace=wrap;align=right;verticalAlign=bottom;" parent="NwXPYGNypekHo5eemHI1-129" connectable="0" vertex="1">
          <mxGeometry x="1" relative="1" as="geometry">
            <mxPoint y="-6" as="offset" />
          </mxGeometry>
        </mxCell>
        <mxCell id="NwXPYGNypekHo5eemHI1-131" value="has" style="shape=rhombus;perimeter=rhombusPerimeter;whiteSpace=wrap;html=1;align=center;" parent="1" vertex="1">
          <mxGeometry x="499" y="208" width="120" height="60" as="geometry" />
        </mxCell>
        <mxCell id="NwXPYGNypekHo5eemHI1-132" value="" style="endArrow=none;html=1;rounded=0;exitX=1;exitY=0.75;exitDx=0;exitDy=0;entryX=0;entryY=0.5;entryDx=0;entryDy=0;" parent="1" source="NwXPYGNypekHo5eemHI1-8" target="NwXPYGNypekHo5eemHI1-131" edge="1">
          <mxGeometry relative="1" as="geometry">
            <mxPoint x="466" y="227" as="sourcePoint" />
            <mxPoint x="325" y="300" as="targetPoint" />
          </mxGeometry>
        </mxCell>
        <mxCell id="NwXPYGNypekHo5eemHI1-133" value="1" style="resizable=0;html=1;whiteSpace=wrap;align=right;verticalAlign=bottom;" parent="NwXPYGNypekHo5eemHI1-132" connectable="0" vertex="1">
          <mxGeometry x="1" relative="1" as="geometry" />
        </mxCell>
        <mxCell id="NwXPYGNypekHo5eemHI1-134" value="lives in" style="shape=rhombus;perimeter=rhombusPerimeter;whiteSpace=wrap;html=1;align=center;" parent="1" vertex="1">
          <mxGeometry x="-156" y="222" width="120" height="60" as="geometry" />
        </mxCell>
        <mxCell id="NwXPYGNypekHo5eemHI1-135" value="sells in" style="shape=rhombus;perimeter=rhombusPerimeter;whiteSpace=wrap;html=1;align=center;" parent="1" vertex="1">
          <mxGeometry x="122" y="486" width="120" height="60" as="geometry" />
        </mxCell>
        <mxCell id="NwXPYGNypekHo5eemHI1-136" value="" style="shape=link;html=1;rounded=0;width=6;entryX=0.5;entryY=0;entryDx=0;entryDy=0;exitX=0.133;exitY=0.979;exitDx=0;exitDy=0;exitPerimeter=0;" parent="1" source="NwXPYGNypekHo5eemHI1-1" target="NwXPYGNypekHo5eemHI1-134" edge="1">
          <mxGeometry relative="1" as="geometry">
            <mxPoint x="-197" y="204" as="sourcePoint" />
            <mxPoint x="-197" y="68" as="targetPoint" />
          </mxGeometry>
        </mxCell>
        <mxCell id="NwXPYGNypekHo5eemHI1-137" value="M" style="resizable=0;html=1;whiteSpace=wrap;align=right;verticalAlign=bottom;" parent="NwXPYGNypekHo5eemHI1-136" connectable="0" vertex="1">
          <mxGeometry x="1" relative="1" as="geometry">
            <mxPoint x="-6" as="offset" />
          </mxGeometry>
        </mxCell>
        <mxCell id="NwXPYGNypekHo5eemHI1-138" value="" style="endArrow=none;html=1;rounded=0;entryX=0.5;entryY=1;entryDx=0;entryDy=0;exitX=0.5;exitY=0;exitDx=0;exitDy=0;" parent="1" source="NwXPYGNypekHo5eemHI1-5" target="NwXPYGNypekHo5eemHI1-134" edge="1">
          <mxGeometry relative="1" as="geometry">
            <mxPoint x="-114" y="366" as="sourcePoint" />
            <mxPoint x="50" y="462" as="targetPoint" />
          </mxGeometry>
        </mxCell>
        <mxCell id="NwXPYGNypekHo5eemHI1-139" value="1" style="resizable=0;html=1;whiteSpace=wrap;align=right;verticalAlign=bottom;" parent="NwXPYGNypekHo5eemHI1-138" connectable="0" vertex="1">
          <mxGeometry x="1" relative="1" as="geometry">
            <mxPoint x="-4" y="15" as="offset" />
          </mxGeometry>
        </mxCell>
        <mxCell id="NwXPYGNypekHo5eemHI1-140" value="" style="endArrow=none;html=1;rounded=0;entryX=0;entryY=0.5;entryDx=0;entryDy=0;exitX=1;exitY=0.5;exitDx=0;exitDy=0;" parent="1" source="NwXPYGNypekHo5eemHI1-5" target="NwXPYGNypekHo5eemHI1-135" edge="1">
          <mxGeometry relative="1" as="geometry">
            <mxPoint x="-10" y="552" as="sourcePoint" />
            <mxPoint x="-10" y="348" as="targetPoint" />
          </mxGeometry>
        </mxCell>
        <mxCell id="NwXPYGNypekHo5eemHI1-141" value="1" style="resizable=0;html=1;whiteSpace=wrap;align=right;verticalAlign=bottom;" parent="NwXPYGNypekHo5eemHI1-140" connectable="0" vertex="1">
          <mxGeometry x="1" relative="1" as="geometry">
            <mxPoint x="-4" y="20" as="offset" />
          </mxGeometry>
        </mxCell>
        <mxCell id="NwXPYGNypekHo5eemHI1-142" value="" style="endArrow=none;html=1;rounded=0;exitX=0.825;exitY=0;exitDx=0;exitDy=0;exitPerimeter=0;entryX=1;entryY=0.5;entryDx=0;entryDy=0;" parent="1" source="NwXPYGNypekHo5eemHI1-4" target="NwXPYGNypekHo5eemHI1-135" edge="1">
          <mxGeometry relative="1" as="geometry">
            <mxPoint x="180" y="515.5" as="sourcePoint" />
            <mxPoint x="166" y="466" as="targetPoint" />
          </mxGeometry>
        </mxCell>
        <mxCell id="NwXPYGNypekHo5eemHI1-143" value="M" style="resizable=0;html=1;whiteSpace=wrap;align=right;verticalAlign=bottom;" parent="NwXPYGNypekHo5eemHI1-142" connectable="0" vertex="1">
          <mxGeometry x="1" relative="1" as="geometry">
            <mxPoint y="26" as="offset" />
          </mxGeometry>
        </mxCell>
        <mxCell id="NwXPYGNypekHo5eemHI1-144" value="status" style="ellipse;whiteSpace=wrap;html=1;align=center;fontSize=14;" parent="1" vertex="1">
          <mxGeometry x="-51" y="5" width="106" height="23" as="geometry" />
        </mxCell>
        <mxCell id="NwXPYGNypekHo5eemHI1-153" style="edgeStyle=orthogonalEdgeStyle;rounded=0;orthogonalLoop=1;jettySize=auto;html=1;" parent="1" source="NwXPYGNypekHo5eemHI1-145" target="NwXPYGNypekHo5eemHI1-97" edge="1">
          <mxGeometry relative="1" as="geometry" />
        </mxCell>
        <mxCell id="NwXPYGNypekHo5eemHI1-145" value="purchase_timestamp" style="ellipse;whiteSpace=wrap;html=1;align=center;fontSize=14;" parent="1" vertex="1">
          <mxGeometry x="132" y="-89" width="176" height="28" as="geometry" />
        </mxCell>
        <mxCell id="NwXPYGNypekHo5eemHI1-146" value="approved_at" style="ellipse;whiteSpace=wrap;html=1;align=center;fontSize=14;" parent="1" vertex="1">
          <mxGeometry x="201" y="12" width="170" height="34" as="geometry" />
        </mxCell>
        <mxCell id="NwXPYGNypekHo5eemHI1-147" value="delivered_carrier_date" style="ellipse;whiteSpace=wrap;html=1;align=center;fontSize=14;" parent="1" vertex="1">
          <mxGeometry x="197" y="-136" width="161" height="34" as="geometry" />
        </mxCell>
        <mxCell id="NwXPYGNypekHo5eemHI1-154" style="edgeStyle=orthogonalEdgeStyle;rounded=0;orthogonalLoop=1;jettySize=auto;html=1;entryX=0;entryY=0;entryDx=0;entryDy=0;" parent="1" source="NwXPYGNypekHo5eemHI1-148" target="NwXPYGNypekHo5eemHI1-97" edge="1">
          <mxGeometry relative="1" as="geometry" />
        </mxCell>
        <mxCell id="NwXPYGNypekHo5eemHI1-148" value="delivered_customer_date" style="ellipse;whiteSpace=wrap;html=1;align=center;fontSize=14;" parent="1" vertex="1">
          <mxGeometry x="-134" y="-49.5" width="176" height="34" as="geometry" />
        </mxCell>
        <mxCell id="NwXPYGNypekHo5eemHI1-149" value="estimated_delivery_date" style="ellipse;whiteSpace=wrap;html=1;align=center;fontSize=14;" parent="1" vertex="1">
          <mxGeometry x="-11" y="-165" width="176" height="31" as="geometry" />
        </mxCell>
        <mxCell id="NwXPYGNypekHo5eemHI1-157" style="edgeStyle=orthogonalEdgeStyle;rounded=0;orthogonalLoop=1;jettySize=auto;html=1;entryX=0.4;entryY=0.117;entryDx=0;entryDy=0;entryPerimeter=0;" parent="1" source="NwXPYGNypekHo5eemHI1-147" target="NwXPYGNypekHo5eemHI1-97" edge="1">
          <mxGeometry relative="1" as="geometry" />
        </mxCell>
        <mxCell id="NwXPYGNypekHo5eemHI1-158" style="edgeStyle=orthogonalEdgeStyle;rounded=0;orthogonalLoop=1;jettySize=auto;html=1;entryX=0.308;entryY=0.083;entryDx=0;entryDy=0;entryPerimeter=0;" parent="1" source="NwXPYGNypekHo5eemHI1-149" target="NwXPYGNypekHo5eemHI1-97" edge="1">
          <mxGeometry relative="1" as="geometry" />
        </mxCell>
        <mxCell id="NwXPYGNypekHo5eemHI1-159" style="edgeStyle=orthogonalEdgeStyle;rounded=0;orthogonalLoop=1;jettySize=auto;html=1;entryX=0.1;entryY=0.333;entryDx=0;entryDy=0;entryPerimeter=0;" parent="1" source="NwXPYGNypekHo5eemHI1-144" target="NwXPYGNypekHo5eemHI1-97" edge="1">
          <mxGeometry relative="1" as="geometry" />
        </mxCell>
        <mxCell id="NwXPYGNypekHo5eemHI1-160" style="edgeStyle=orthogonalEdgeStyle;rounded=0;orthogonalLoop=1;jettySize=auto;html=1;entryX=0.692;entryY=0.217;entryDx=0;entryDy=0;entryPerimeter=0;" parent="1" source="NwXPYGNypekHo5eemHI1-146" target="NwXPYGNypekHo5eemHI1-97" edge="1">
          <mxGeometry relative="1" as="geometry" />
        </mxCell>
        <mxCell id="NwXPYGNypekHo5eemHI1-162" style="edgeStyle=orthogonalEdgeStyle;rounded=0;orthogonalLoop=1;jettySize=auto;html=1;entryX=0.442;entryY=-0.042;entryDx=0;entryDy=0;entryPerimeter=0;" parent="1" source="NwXPYGNypekHo5eemHI1-14" target="NwXPYGNypekHo5eemHI1-1" edge="1">
          <mxGeometry relative="1" as="geometry" />
        </mxCell>
        <mxCell id="NwXPYGNypekHo5eemHI1-164" style="edgeStyle=orthogonalEdgeStyle;rounded=0;orthogonalLoop=1;jettySize=auto;html=1;exitX=0;exitY=0.5;exitDx=0;exitDy=0;" parent="1" source="NwXPYGNypekHo5eemHI1-163" edge="1">
          <mxGeometry relative="1" as="geometry">
            <mxPoint x="688" y="-156" as="targetPoint" />
          </mxGeometry>
        </mxCell>
        <mxCell id="NwXPYGNypekHo5eemHI1-163" value="value" style="ellipse;whiteSpace=wrap;html=1;align=center;fontSize=14;" parent="1" vertex="1">
          <mxGeometry x="733" y="-176" width="100" height="40" as="geometry" />
        </mxCell>
        <mxCell id="uobmm24bpshC0NRzh4nf-3" style="edgeStyle=orthogonalEdgeStyle;rounded=0;orthogonalLoop=1;jettySize=auto;html=1;entryX=0.879;entryY=1;entryDx=0;entryDy=0;entryPerimeter=0;" parent="1" source="NwXPYGNypekHo5eemHI1-33" target="NwXPYGNypekHo5eemHI1-6" edge="1">
          <mxGeometry relative="1" as="geometry" />
        </mxCell>
      </root>
    </mxGraphModel>
  </diagram>
</mxfile>
